<?xml version="1.0" standalone="no"?>
<!DOCTYPE svg PUBLIC "-//W3C//DTD SVG 20010904//EN"
 "http://www.w3.org/TR/2001/REC-SVG-20010904/DTD/svg10.dtd">
<svg version="1.0" xmlns="http://www.w3.org/2000/svg"
 width="464.000000pt" height="120.000000pt" viewBox="0 0 464.000000 120.000000"
 preserveAspectRatio="xMidYMid meet">

<g transform="translate(0.000000,120.000000) scale(0.100000,-0.100000)"
fill="#000000" stroke="none">
<path d="M1590 1055 c-85 -18 -148 -35 -140 -38 8 -3 49 -13 90 -22 71 -15 78
-18 126 -72 l51 -56 27 39 c22 33 26 49 26 111 0 52 -4 73 -12 72 -7 -1 -83
-16 -168 -34z"/>
<path d="M1390 887 c-201 -89 -260 -117 -345 -165 -120 -66 -355 -219 -355
-231 0 -16 57 -80 66 -73 5 4 -14 -18 -42 -48 -85 -92 -194 -253 -194 -285 0
-3 55 -5 123 -5 l123 0 35 72 c47 98 173 287 252 380 36 42 99 105 139 139 54
46 74 70 78 93 4 26 17 38 80 74 87 49 114 82 40 49z"/>
</g>
</svg>
