<svg width="255" height="89" viewBox="0 0 255 89" fill="none" xmlns="http://www.w3.org/2000/svg">
<path d="M170.565 65.0108C172.848 63.0113 174.334 60.2542 174.768 57.2136L178.917 28.1354C179.211 26.0704 178.58 23.9485 177.19 22.3296C175.772 20.6776 173.711 19.7203 171.571 19.7203H153.616C151.011 19.7203 148.523 20.6467 146.597 22.3336C144.717 23.9805 143.49 26.2488 143.126 28.7513L138.778 58.6582C138.477 60.7252 139.106 62.8517 140.499 64.4732C141.914 66.1226 143.972 67.0778 146.109 67.0778H165.014C167.074 67.0778 169.042 66.3451 170.565 65.0108ZM125.102 58.4066L129.859 24.919C130.42 20.9683 132.344 17.3829 135.3 14.7747L138.279 12.1462C141.324 9.45869 145.269 7.98207 149.401 7.98207H174.899C180.056 7.98207 185.026 10.2788 188.456 14.2488C191.844 18.1685 193.386 23.3194 192.672 28.3336L187.85 62.2206C187.283 66.2095 185.327 69.8243 182.323 72.4376L179.689 74.7282C176.655 77.3679 172.746 78.8161 168.654 78.8161H142.928C137.747 78.8161 132.757 76.497 129.325 72.4955L129.273 72.4335C125.917 68.5209 124.393 63.3954 125.102 58.4066Z" fill="#005FAB"/>
<path d="M0 23.3754H24.9796L17.1488 88.9341L32.4074 73.927L42.105 3.05176e-05L0 23.3754Z" fill="#005FAB"/>
<path d="M115.956 34.2221C108.018 70.9257 32.4071 73.9272 32.4071 73.9272L17.1486 88.9342C65.7683 88.9342 111.888 72.4135 119.115 43.0787C127.713 8.18153 102.296 8.06822 102.296 8.06822C115.929 9.13071 118.726 21.4106 115.956 34.2221Z" fill="url(#paint0_linear_7186_23090)"/>
<path d="M96.217 19.9437H79.6312C76.4483 19.9437 72.0251 21.8786 71.3711 26.9147L69.4681 41.2053H87.6601C96.5844 41.2053 99.7297 40.3069 102.223 35.1088C102.223 35.1088 109.082 19.9447 96.2297 19.9437C96.2251 19.9437 96.2216 19.9437 96.217 19.9437Z" fill="url(#paint1_linear_7186_23090)"/>
<path d="M108.582 48.0624C103.423 52.7367 97.6031 53.1691 92.4217 53.1691L67.7796 52.9562L65.4249 69.2727C81.5158 65.5822 99.4603 59.0289 109.256 47.472C109.036 47.6641 108.812 47.8602 108.582 48.0624Z" fill="url(#paint2_linear_7186_23090)"/>
<path d="M99.2631 0.950867L85.4299 0.935638C66.9183 0.935638 51.242 3.24813 47.8685 28.4457C46.3467 39.813 43.4438 61.8144 32.4072 73.9277C32.4072 73.9277 40.049 73.6218 50.7232 72.0298L57.3426 25.0138C58.7293 15.1647 67.0331 7.98235 77.0335 7.98235H100.623C101.204 7.98235 101.781 8.01539 102.355 8.07433C102.335 8.0723 102.316 8.06975 102.296 8.06822C102.296 8.06822 127.007 8.18103 119.453 41.6428C124.565 25.8202 126.703 0.937668 100.401 0.935638C100.026 0.935638 99.6493 0.940704 99.2631 0.950867Z" fill="url(#paint3_linear_7186_23090)"/>
<path d="M102.223 35.1086C99.7294 40.3067 96.5846 41.2051 87.6598 41.2051H69.4679L71.3708 26.9145C72.0248 21.8785 76.448 19.9435 79.6309 19.9435H96.2167C109.088 19.9334 102.223 35.1086 102.223 35.1086ZM100.623 7.9822H77.0329C67.0334 7.9822 58.7291 15.1646 57.3424 25.0136L50.723 72.0302C48.8938 72.303 47.1565 72.5368 45.5284 72.739V72.7405C51.4105 72.0104 58.7575 70.8483 66.4811 69.0251C66.1284 69.1084 65.7753 69.1923 65.4247 69.2726L67.7799 52.9566L92.4215 53.169C97.6029 53.169 103.423 52.7366 108.581 48.0628C108.812 47.8606 109.036 47.6639 109.255 47.4719C112.509 43.633 114.869 39.2448 115.955 34.2219C118.726 21.411 115.93 9.13006 102.295 8.06807C102.319 8.0696 102.341 8.07316 102.365 8.07519C101.788 8.01574 101.207 7.9822 100.623 7.9822Z" fill="white"/>
<path d="M242.646 29.1309C242.646 29.1309 261.472 28.2249 252.644 14.1507L252.346 13.8083C249.13 10.1157 244.489 7.98208 239.676 7.98208H223.261C218.183 7.98208 213.332 9.7839 209.572 13.0674C205.848 16.3194 203.433 20.8169 202.749 25.7732L202.241 29.4515C201.595 34.1288 203.039 38.926 206.193 42.583L206.268 42.6699C209.486 46.4001 214.151 48.5596 218.994 48.5596H235.176C236.555 48.5596 237.882 49.178 238.792 50.2451L238.802 50.2568C239.692 51.299 240.092 52.6623 239.899 53.9875L238.865 61.0586C238.622 62.7262 237.804 64.2369 236.55 65.3345C235.266 66.46 233.606 67.0778 231.869 67.0778H215.894C214.515 67.0778 213.187 66.4584 212.277 65.3914C211.383 64.3431 210.983 62.9701 211.185 61.6388L211.771 57.7679H198.211L197.761 61.9224C197.052 66.6541 198.663 69.2196 201.861 72.9264C205.078 76.6566 209.744 78.8161 214.586 78.8161H231.904C237.018 78.8161 241.901 76.9904 245.672 73.6672C249.321 70.4528 251.702 66.0377 252.413 61.1693L253.169 55.993C253.857 51.2796 252.417 46.4301 249.234 42.7395L249.21 42.7116C245.993 38.9809 241.327 36.8214 236.484 36.8214H220.302C218.923 36.8214 217.595 36.2025 216.685 35.1354L216.664 35.111C215.782 34.0765 215.38 32.7248 215.564 31.4083L216.378 25.5918C216.607 23.9556 217.406 22.4713 218.636 21.3987C219.879 20.3154 221.482 19.7203 223.159 19.7203H238.419C239.798 19.7203 241.126 20.3392 242.036 21.4063L242.071 21.4475C242.945 22.4718 243.347 23.8077 243.175 25.1136L242.646 29.1309Z" fill="#005FAB"/>
<defs>
<linearGradient id="paint0_linear_7186_23090" x1="53.3164" y1="85.9232" x2="115.563" y2="15.6379" gradientUnits="userSpaceOnUse">
<stop stop-color="#F89734"/>
<stop offset="0.514573" stop-color="#EE3338"/>
<stop offset="1" stop-color="#EE3338"/>
</linearGradient>
<linearGradient id="paint1_linear_7186_23090" x1="100.917" y1="13.2935" x2="59.2524" y2="63.0948" gradientUnits="userSpaceOnUse">
<stop stop-color="#F89734"/>
<stop offset="0.514573" stop-color="#EE3338"/>
<stop offset="1" stop-color="#EE3338"/>
</linearGradient>
<linearGradient id="paint2_linear_7186_23090" x1="111.634" y1="22.2588" x2="69.9685" y2="72.0601" gradientUnits="userSpaceOnUse">
<stop stop-color="#F89734"/>
<stop offset="0.514573" stop-color="#EE3338"/>
<stop offset="1" stop-color="#EE3338"/>
</linearGradient>
<linearGradient id="paint3_linear_7186_23090" x1="98.9719" y1="11.6661" x2="57.3069" y2="61.4674" gradientUnits="userSpaceOnUse">
<stop stop-color="#F89734"/>
<stop offset="0.514573" stop-color="#EE3338"/>
<stop offset="1" stop-color="#EE3338"/>
</linearGradient>
</defs>
</svg>
