<svg xmlns="http://www.w3.org/2000/svg" version="1.1" xmlns:xlink="http://www.w3.org/1999/xlink" xmlns:svgjs="http://svgjs.dev/svgjs" width="1530" height="758" preserveAspectRatio="none" viewBox="0 0 1530 758" style=""><g mask="url(&quot;#SvgjsMask1120&quot;)" fill="none"><rect width="1530" height="758" x="0" y="0" fill="url(&quot;#SvgjsLinearGradient1121&quot;)" style=""></rect><path d="M1348.288,678.288C1385.259,679.159,1419.445,657.638,1437.122,625.155C1454.081,593.992,1450.331,555.873,1431.148,526.027C1413.451,498.492,1380.977,488.616,1348.288,486.938C1311.393,485.044,1268.492,485.15,1249.252,516.688C1229.558,548.97,1246.664,588.889,1266.423,621.131C1285.062,651.545,1312.627,677.447,1348.288,678.288" fill="rgba(28, 83, 142, 0.4)" class="triangle-float1"></path><path d="M791.774,310.967C845.137,313.084,897.636,288.775,924.811,242.801C952.434,196.07,950.239,137.163,921.867,90.883C894.704,46.575,843.698,28.01,791.774,25.794C734.686,23.357,668.815,29.029,640.908,78.89C613.348,128.131,645.088,185.614,675.843,232.925C703.055,274.786,741.885,308.988,791.774,310.967" fill="rgba(28, 83, 142, 0.4)" class="triangle-float2"></path><path d="M1257.615,332.094C1303.083,333.488,1345.547,306.849,1366.835,266.649C1386.927,228.708,1375.427,185.098,1355.633,147C1333.651,104.69,1305.272,57.906,1257.615,56.426C1208.399,54.898,1169.824,96.205,1148.454,140.566C1129.813,179.262,1138.138,222.974,1159.407,260.291C1180.929,298.052,1214.171,330.762,1257.615,332.094" fill="rgba(28, 83, 142, 0.4)" class="triangle-float3"></path><path d="M284.264,822.958C323.421,822.556,356.918,797.082,375.91,762.837C394.303,729.672,395.559,689.46,376.474,656.688C357.509,624.124,321.948,605.37,284.264,605.472C246.761,605.573,212.117,624.971,192.912,657.183C173.221,690.211,170.745,731.075,189.303,764.752C208.508,799.604,244.473,823.366,284.264,822.958" fill="rgba(28, 83, 142, 0.4)" class="triangle-float2"></path><path d="M381.68,619.506C451.312,620.891,504.298,563.023,536.782,501.416C566.849,444.393,570.79,377.119,539.078,320.995C506.85,263.958,447.183,227.982,381.68,226.918C314.268,225.823,247.166,256.389,215.172,315.735C184.481,372.663,205.825,438.738,236.911,495.451C269.65,555.18,313.58,618.151,381.68,619.506" fill="rgba(28, 83, 142, 0.4)" class="triangle-float2"></path><path d="M1322.706,986.897C1384.655,984.684,1438.701,945.884,1467.198,890.834C1493.539,839.95,1481.413,781.865,1455.224,730.902C1425.894,673.826,1386.768,613.388,1322.706,609.656C1253.953,605.651,1194.084,653.634,1160.445,713.73C1127.619,772.374,1124.833,844.057,1159.155,901.838C1192.79,958.463,1256.887,989.248,1322.706,986.897" fill="rgba(28, 83, 142, 0.4)" class="triangle-float1"></path><path d="M1149.454,219.409C1190.668,216.347,1220.252,185.024,1241.828,149.775C1264.753,112.322,1286.949,67.753,1265.859,29.237C1244.244,-10.238,1194.409,-21.074,1149.454,-18.924C1108.552,-16.968,1073.142,5.164,1050.856,39.518C1026.016,77.81,1007.861,125.501,1029.799,165.526C1052.333,206.639,1102.7,222.882,1149.454,219.409" fill="rgba(28, 83, 142, 0.4)" class="triangle-float2"></path><path d="M9.652,489.686C37.351,491.071,66.971,485.379,82.272,462.248C98.987,436.979,100.482,402.81,83.887,377.462C68.486,353.938,37.766,350.913,9.652,351.329C-17.49,351.731,-47.15,356.182,-60.868,379.606C-74.688,403.205,-66.144,432.537,-51.392,455.565C-37.914,476.603,-15.302,488.438,9.652,489.686" fill="rgba(28, 83, 142, 0.4)" class="triangle-float1"></path></g><defs><mask id="SvgjsMask1120"><rect width="1530" height="758" fill="#ffffff"></rect></mask><linearGradient x1="12.61%" y1="125.46%" x2="87.39%" y2="-25.46%" gradientUnits="userSpaceOnUse" id="SvgjsLinearGradient1121"><stop stop-color="#0e2a47" offset="0"></stop><stop stop-color="#00459e" offset="1"></stop></linearGradient></defs></svg>